<?xml version="1.0" encoding="UTF-8" standalone="no"?>
<!DOCTYPE svg PUBLIC "-//W3C//DTD SVG 1.1//EN" "http://www.w3.org/Graphics/SVG/1.1/DTD/svg11.dtd">
<svg width="100%" height="100%" viewBox="0 0 4000 4000" version="1.1" xmlns="http://www.w3.org/2000/svg" xmlns:xlink="http://www.w3.org/1999/xlink" xml:space="preserve" xmlns:serif="http://www.serif.com/" style="fill-rule:evenodd;clip-rule:evenodd;stroke-linejoin:round;stroke-miterlimit:2;">
    <g transform="matrix(26.5592,0,0,26.5592,-5560.68,-6086.41)">
        <circle cx="284.673" cy="304.467" r="73.193" style="fill:rgb(224,239,244);"/>
        <path d="M284.673,231.274C325.069,231.274 357.866,264.071 357.866,304.467C357.866,344.864 325.069,377.661 284.673,377.661C244.276,377.661 211.479,344.864 211.479,304.467C211.479,264.071 244.276,231.274 284.673,231.274ZM284.673,232.529C324.377,232.529 356.611,264.764 356.611,304.467C356.611,344.171 324.377,376.406 284.673,376.406C244.969,376.406 212.734,344.171 212.734,304.467C212.734,264.764 244.969,232.529 284.673,232.529Z"/>
    </g>
    <g id="Käfer" transform="matrix(1.13414,0,0,1.13414,-271.048,-154.862)">
        <g id="Körper" transform="matrix(1,0,0,1,9.62607,39)">
            <g id="Korpus" transform="matrix(1,0,0,1,-9.62607,-39)">
                <path d="M2870.69,2633C2771.62,3021.39 2419.13,3309 2000,3309C1580.87,3309 1228.38,3021.39 1129.31,2633L2870.69,2633ZM1102.4,2370C1123.63,1892.84 1517.69,1512 2000,1512C2482.31,1512 2876.37,1892.84 2897.6,2370L1102.4,2370Z" style="stroke:black;stroke-width:29.35px;"/>
            </g>
            <g id="Beine">
                <g transform="matrix(1,0,0,1,-57,-49)">
                    <path d="M1344.89,1860.52L1202,1755L1141,1764L1015,1933L1059,1968L1177,1810L1311.97,1904.43L1344.89,1860.52Z"/>
                    <path d="M1353.71,1867.13C1355.47,1864.78 1356.22,1861.83 1355.79,1858.92C1355.37,1856.02 1353.8,1853.4 1351.44,1851.65L1208.55,1746.13C1206.2,1744.4 1203.27,1743.67 1200.39,1744.1L1139.39,1753.1C1136.51,1753.52 1133.91,1755.07 1132.16,1757.41L1006.16,1926.41C1002.61,1931.18 1003.48,1937.92 1008.14,1941.63L1052.14,1976.63C1054.47,1978.48 1057.46,1979.31 1060.41,1978.93C1063.37,1978.55 1066.05,1976.98 1067.83,1974.6L1179.44,1825.16C1179.44,1825.16 1305.65,1913.46 1305.65,1913.46C1310.52,1916.87 1317.22,1915.8 1320.79,1911.04L1353.71,1867.13ZM1344.89,1860.52L1202,1755L1141,1764L1015,1933L1059,1968L1177,1810L1311.97,1904.43L1344.89,1860.52Z"/>
                </g>
                <g transform="matrix(0.869649,-0.493671,0.493671,0.869649,-985.212,1262.21)">
                    <path d="M1345.55,1863.45L1202,1755L1141,1764L1015,1933L1059,1968L1177,1810L1311.1,1908.31L1345.55,1863.45Z"/>
                    <path d="M1354.29,1870.16C1356.08,1867.83 1356.86,1864.88 1356.47,1861.97C1356.08,1859.06 1354.54,1856.43 1352.19,1854.65L1208.64,1746.21C1206.29,1744.42 1203.31,1743.66 1200.39,1744.1L1139.39,1753.1C1136.51,1753.52 1133.91,1755.07 1132.16,1757.41L1006.16,1926.41C1002.61,1931.18 1003.48,1937.92 1008.14,1941.63L1052.14,1976.63C1054.47,1978.48 1057.46,1979.31 1060.41,1978.93C1063.37,1978.55 1066.05,1976.98 1067.83,1974.6L1179.29,1825.35C1179.29,1825.35 1304.58,1917.2 1304.58,1917.2C1309.41,1920.74 1316.19,1919.77 1319.84,1915.02L1354.29,1870.16ZM1345.55,1863.45L1202,1755L1141,1764L1015,1933L1059,1968L1177,1810L1311.1,1908.31L1345.55,1863.45Z"/>
                </g>
                <g transform="matrix(0.497279,-0.867591,0.867591,0.497279,-1132.44,2935.16)">
                    <path d="M1342.82,1864.38L1202,1755L1141,1764L1015,1933L1059,1968L1177,1810L1310.49,1907.02L1342.82,1864.38Z"/>
                    <path d="M1351.6,1871.04C1355.25,1866.23 1354.35,1859.38 1349.58,1855.68L1208.76,1746.3C1206.39,1744.45 1203.36,1743.66 1200.39,1744.1L1139.39,1753.1C1136.51,1753.52 1133.91,1755.07 1132.16,1757.41L1006.16,1926.41C1002.61,1931.18 1003.48,1937.92 1008.14,1941.63L1052.14,1976.63C1054.47,1978.48 1057.46,1979.31 1060.41,1978.93C1063.37,1978.55 1066.05,1976.98 1067.83,1974.6C1067.83,1974.6 1154.59,1858.43 1179.32,1825.31C1179.32,1825.31 1304.01,1915.93 1304.01,1915.93C1308.86,1919.46 1315.65,1918.46 1319.27,1913.68L1351.6,1871.04ZM1342.82,1864.38L1202,1755L1141,1764L1015,1933L1059,1968L1177,1810L1310.49,1907.02L1342.82,1864.38Z"/>
                </g>
                <g transform="matrix(-1,0,0,1,4042.64,-49)">
                    <path d="M1344.89,1860.52L1202,1755L1141,1764L1015,1933L1059,1968L1177,1810L1311.97,1904.43L1344.89,1860.52Z"/>
                    <path d="M1351.44,1851.65C1353.8,1853.4 1355.37,1856.02 1355.79,1858.92C1356.22,1861.83 1355.47,1864.78 1353.71,1867.13L1320.79,1911.04C1317.22,1915.8 1310.52,1916.87 1305.65,1913.46L1179.44,1825.16C1154.86,1858.07 1067.83,1974.6 1067.83,1974.6C1066.05,1976.98 1063.37,1978.55 1060.41,1978.93C1057.46,1979.31 1054.47,1978.48 1052.14,1976.63L1008.14,1941.63C1003.48,1937.92 1002.61,1931.18 1006.16,1926.41L1132.16,1757.41C1133.91,1755.07 1136.51,1753.52 1139.39,1753.1L1200.39,1744.1C1203.27,1743.67 1206.2,1744.4 1208.55,1746.13L1351.44,1851.65ZM1344.89,1860.52L1202,1755L1141,1764L1015,1933L1059,1968L1177,1810L1311.97,1904.43L1344.89,1860.52Z"/>
                </g>
                <g transform="matrix(-0.869649,-0.493671,-0.493671,0.869649,4970.85,1262.21)">
                    <path d="M1345.55,1863.45L1202,1755L1141,1764L1015,1933L1059,1968L1177,1810L1311.1,1908.31L1345.55,1863.45Z"/>
                    <path d="M1352.19,1854.65C1354.54,1856.43 1356.08,1859.06 1356.47,1861.97C1356.86,1864.88 1356.08,1867.83 1354.29,1870.16L1319.84,1915.02C1316.19,1919.77 1309.41,1920.74 1304.58,1917.2L1179.29,1825.35C1154.52,1858.52 1067.83,1974.6 1067.83,1974.6C1066.05,1976.98 1063.37,1978.55 1060.41,1978.93C1057.46,1979.31 1054.47,1978.48 1052.14,1976.63L1008.14,1941.63C1003.48,1937.92 1002.61,1931.18 1006.16,1926.41L1132.16,1757.41C1133.91,1755.07 1136.51,1753.52 1139.39,1753.1L1200.39,1744.1C1203.31,1743.66 1206.29,1744.42 1208.64,1746.21L1352.19,1854.65ZM1345.55,1863.45L1202,1755L1141,1764L1015,1933L1059,1968L1177,1810L1311.1,1908.31L1345.55,1863.45Z"/>
                </g>
                <g transform="matrix(-0.497279,-0.867591,-0.867591,0.497279,5118.07,2935.16)">
                    <path d="M1342.82,1864.38L1202,1755L1141,1764L1015,1933L1059,1968L1177,1810L1310.49,1907.02L1342.82,1864.38Z"/>
                    <path d="M1349.58,1855.68C1354.35,1859.38 1355.25,1866.23 1351.6,1871.04L1319.27,1913.68C1315.65,1918.46 1308.86,1919.46 1304.01,1915.93L1179.32,1825.31C1179.32,1825.31 1067.83,1974.6 1067.83,1974.6C1066.05,1976.98 1063.37,1978.55 1060.41,1978.93C1057.46,1979.31 1054.47,1978.48 1052.14,1976.63L1008.14,1941.63C1003.48,1937.92 1002.61,1931.18 1006.16,1926.41L1132.16,1757.41C1133.91,1755.07 1136.51,1753.52 1139.39,1753.1L1200.39,1744.1C1203.36,1743.66 1206.39,1744.45 1208.76,1746.3L1349.58,1855.68ZM1342.82,1864.38L1202,1755L1141,1764L1015,1933L1059,1968L1177,1810L1310.49,1907.02L1342.82,1864.38Z"/>
                </g>
            </g>
            <g id="Kopf" transform="matrix(1,0,0,1,23,-10)">
                <g transform="matrix(1,0,0,1,-9.62607,-39)">
                    <path d="M1585,1224.39C1585.7,1023.15 1761.08,860 1977,860C2193.35,860 2369,1023.81 2369,1225.57L2369,1418C2115,1322.51 1853.17,1329.24 1585,1418L1585,1225.57L1585,1224.39Z" style="stroke:black;stroke-width:11.02px;"/>
                </g>
                <g transform="matrix(1,0,0,1,-9.62607,-39)">
                    <path d="M1749.85,640.368C1738.12,647.129 1724.51,651 1710,651C1665.85,651 1643,615.153 1643,571C1643,526.847 1672.85,501 1717,501C1761.15,501 1790,526.847 1790,571C1790,588.401 1784.43,604.511 1774.99,617.642C1848.88,741.277 1843.32,881.844 1843.32,881.844L1810.3,894.657C1810.49,744.743 1757.27,652.499 1749.85,640.368Z" style="stroke:black;stroke-width:11.02px;"/>
                </g>
                <g transform="matrix(1,0,0,1,-9.62607,-39)">
                    <path d="M2188.95,653.087C2164.6,641.533 2147.75,616.719 2147.75,588C2147.75,548.262 2176.01,520 2215.75,520C2255.49,520 2294.75,549.262 2294.75,589C2282.68,659.854 2218.02,659.949 2218.02,659.949C2187.34,737.455 2148.2,817.762 2107.15,880.664L2078.5,872.396C2122.2,807.241 2163.21,726.055 2188.95,653.087Z" style="stroke:black;stroke-width:11.02px;"/>
                </g>
            </g>
        </g>
        <g id="Flügel" transform="matrix(1,0,0,1,-9.92741,7)">
            <path d="M1916,1582C1674.56,2121.33 1672.96,2657.67 1733.89,3197C934.159,2833.47 1063.44,1723.44 1916,1582Z" style="fill:rgb(0,155,255);stroke:rgb(0,155,255);stroke-width:11.02px;"/>
            <g transform="matrix(-1,0,0,1,4019.85,0)">
                <path d="M1916,1582C1674.56,2121.33 1672.96,2657.67 1733.89,3197C934.159,2833.47 1063.44,1723.44 1916,1582Z" style="fill:rgb(0,155,255);stroke:rgb(0,155,255);stroke-width:11.02px;"/>
            </g>
        </g>
    </g>
</svg>
