<?xml version="1.0" encoding="UTF-8" standalone="no"?>
<!DOCTYPE svg PUBLIC "-//W3C//DTD SVG 1.1//EN" "http://www.w3.org/Graphics/SVG/1.1/DTD/svg11.dtd">
<svg width="100%" height="100%" viewBox="0 0 500 500" version="1.1" xmlns="http://www.w3.org/2000/svg" xmlns:xlink="http://www.w3.org/1999/xlink" xml:space="preserve" xmlns:serif="http://www.serif.com/" style="fill-rule:evenodd;clip-rule:evenodd;stroke-linecap:round;stroke-linejoin:round;stroke-miterlimit:1.5;">
    <g id="Kolben" transform="matrix(0.539959,0,0,0.539959,-74.7579,58.7084)">
        <g transform="matrix(5.19244,0,0,5.19244,-871.956,-1222.84)">
            <circle cx="284.673" cy="304.467" r="73.193" style="fill:rgb(224,239,244);stroke:black;stroke-width:1.43px;"/>
        </g>
        <g id="Kolben1" serif:id="Kolben" transform="matrix(0.139799,0,0,0.126876,167.474,302.632)">
            <g id="Hintergrund" transform="matrix(1.19698,0,0,1.19698,822.638,-2091.89)">
                <path d="M1520.8,616.564L1510.58,1459.84L1073.1,2492.6L1690.09,2520.32L2784.94,2491.57L2355.64,1458.94L2357.68,613.37L1520.8,616.564" style="fill:white;"/>
            </g>
            <g id="Flüssigkeit" transform="matrix(1.19698,0,0,1.19698,822.638,-2091.89)">
                <path d="M2731.7,2355.22L3118.21,3267.76C3276.88,3611.89 2942.93,3613.11 2942.93,3613.11L922.625,3612.79C611.383,3585.36 728.231,3325.28 728.231,3325.28L1120.57,2396.39C1120.57,2396.39 1393.58,2462.21 1529.86,2431.71C1671.78,2399.95 1866.51,2380.29 1999.8,2402.92C2156.99,2429.61 2193.95,2445.75 2393.33,2392.97C2591.24,2340.59 2731.7,2355.22 2731.7,2355.22Z" style="fill:rgb(45,243,0);stroke:black;stroke-width:23.18px;"/>
            </g>
            <g id="Umrandung" transform="matrix(1.19698,0,0,1.19698,822.638,-2091.89)">
                <g transform="matrix(1.1273,0,0,1,-246.246,-5.68434e-14)">
                    <path d="M1518.13,610.55L2350.63,610.55" style="fill:none;stroke:black;stroke-width:43.26px;"/>
                </g>
                <path d="M2103.15,3614.84L982.8,3615.05C885.297,3615.3 593.235,3600.86 754.453,3260.99L1471.24,1565.65C1514.33,1454.87 1518.14,1403.56 1518.13,1349.99C1518.12,1280.87 1518.13,610.55 1518.13,610.55" style="fill:none;stroke:black;stroke-width:46.36px;"/>
                <g transform="matrix(-1,0,0,1,3869.12,-5.68434e-14)">
                    <path d="M2103.15,3614.84L982.8,3615.05C885.297,3615.3 593.235,3600.86 754.453,3260.99L1471.24,1565.65C1514.33,1454.87 1518.14,1403.56 1518.13,1349.99C1518.12,1280.87 1518.13,610.55 1518.13,610.55" style="fill:none;stroke:black;stroke-width:46.36px;"/>
                </g>
            </g>
        </g>
    </g>
</svg>
