<?xml version="1.0" encoding="UTF-8" standalone="no"?>
<!DOCTYPE svg PUBLIC "-//W3C//DTD SVG 1.1//EN" "http://www.w3.org/Graphics/SVG/1.1/DTD/svg11.dtd">
<svg width="100%" height="100%" viewBox="0 0 500 500" version="1.1" xmlns="http://www.w3.org/2000/svg" xmlns:xlink="http://www.w3.org/1999/xlink" xml:space="preserve" xmlns:serif="http://www.serif.com/" style="fill-rule:evenodd;clip-rule:evenodd;stroke-linecap:round;stroke-linejoin:round;stroke-miterlimit:1.5;">
    <g id="Puzzel" transform="matrix(0.539959,0,0,0.539959,-4.34409,57.7084)">
        <g transform="matrix(5.19244,0,0,5.19244,-1009.7,-1222.84)">
            <circle cx="284.673" cy="304.467" r="73.193" style="fill:rgb(224,239,244);stroke:black;stroke-width:1.43px;"/>
        </g>
        <g transform="matrix(6.75273,0,0,6.75273,-4547.15,-142.327)">
            <path d="M711,53L737,53C736.792,40.698 751.971,40.491 753,53L778,53L778,67C764.832,67.535 765.339,81.54 778,82L778,96L753,96C752.68,82.919 737.353,82.454 737.015,96L711,96L711,83C696.449,82.569 697.003,67.657 711,67L711,53Z" style="fill:rgb(245,99,13);stroke:black;stroke-width:1.1px;"/>
        </g>
    </g>
</svg>
