<?xml version="1.0" encoding="UTF-8" standalone="no"?>
<!DOCTYPE svg PUBLIC "-//W3C//DTD SVG 1.1//EN" "http://www.w3.org/Graphics/SVG/1.1/DTD/svg11.dtd">
<svg width="100%" height="100%" viewBox="0 0 4000 4000" version="1.1" xmlns="http://www.w3.org/2000/svg" xmlns:xlink="http://www.w3.org/1999/xlink" xml:space="preserve" xmlns:serif="http://www.serif.com/" style="fill-rule:evenodd;clip-rule:evenodd;stroke-linejoin:round;stroke-miterlimit:2;">
    <g transform="matrix(1.16161,0,0,1.16161,-585.168,-105.422)">
        <rect x="552" y="139" width="3347" height="3347" style="fill:rgb(224,239,244);"/>
        <path d="M3927.66,139C3927.66,123.171 3914.83,110.34 3899,110.34L552,110.34C536.171,110.34 523.34,123.171 523.34,139L523.34,3486C523.34,3501.83 536.171,3514.66 552,3514.66L3899,3514.66C3914.83,3514.66 3927.66,3501.83 3927.66,3486L3927.66,139ZM3899,139L552,139L552,3486L3899,3486L3899,139Z"/>
    </g>
    <g id="Balken" transform="matrix(1.19596,0,0,1.19596,-391.911,-391.911)">
        <g transform="matrix(1.06083,0,0,0.719536,-73.9217,623.905)">
            <rect x="870" y="916" width="2170" height="515"/>
            <path d="M3062.99,916C3062.99,897.281 3052.7,882.106 3040,882.106L870,882.106C857.303,882.106 847.011,897.281 847.011,916L847.011,1431C847.011,1449.72 857.303,1464.89 870,1464.89L3040,1464.89C3052.7,1464.89 3062.99,1449.72 3062.99,1431L3062.99,916ZM3040,916L870,916L870,1431L3040,1431L3040,916Z"/>
        </g>
        <g transform="matrix(1.06083,0,0,0.719536,-73.9217,1155.62)">
            <rect x="870" y="916" width="2170" height="515"/>
            <path d="M3062.99,916C3062.99,897.281 3052.7,882.106 3040,882.106L870,882.106C857.303,882.106 847.011,897.281 847.011,916L847.011,1431C847.011,1449.72 857.303,1464.89 870,1464.89L3040,1464.89C3052.7,1464.89 3062.99,1449.72 3062.99,1431L3062.99,916ZM3040,916L870,916L870,1431L3040,1431L3040,916Z"/>
        </g>
        <g transform="matrix(1.06083,0,0,0.719536,-73.9217,1687.34)">
            <rect x="870" y="916" width="2170" height="515"/>
            <path d="M3062.99,916C3062.99,897.281 3052.7,882.106 3040,882.106L870,882.106C857.303,882.106 847.011,897.281 847.011,916L847.011,1431C847.011,1449.72 857.303,1464.89 870,1464.89L3040,1464.89C3052.7,1464.89 3062.99,1449.72 3062.99,1431L3062.99,916ZM3040,916L870,916L870,1431L3040,1431L3040,916Z"/>
        </g>
    </g>
</svg>
